<?xml version="1.0" standalone="no"?>
<!DOCTYPE svg PUBLIC "-//W3C//DTD SVG 20010904//EN"
 "http://www.w3.org/TR/2001/REC-SVG-20010904/DTD/svg10.dtd">
<svg version="1.0" xmlns="http://www.w3.org/2000/svg"
 width="320.000000pt" height="320.000000pt" viewBox="0 0 320.000000 320.000000"
 preserveAspectRatio="xMidYMid meet">
<metadata>
Created by potrace 1.11, written by Peter Selinger 2001-2013
</metadata>
<g transform="translate(0.000000,320.000000) scale(0.100000,-0.100000)"
fill="#000000" stroke="none">
<path d="M2175 3170 c-22 -4 -57 -11 -77 -14 -49 -9 -149 -49 -204 -81 -78
-46 -151 -127 -200 -224 -57 -113 -95 -246 -112 -396 -10 -85 -9 -1658 1
-1730 47 -340 165 -552 361 -648 105 -52 189 -69 351 -73 148 -3 202 3 295 37
121 43 248 184 301 334 6 17 7 15 9 -10 1 -16 3 -43 5 -60 2 -16 6 -50 8 -75
3 -25 8 -78 12 -117 l8 -73 78 0 79 0 0 753 0 752 -350 0 -351 1 3 -110 3
-110 228 0 228 1 -2 -267 c-1 -279 -12 -386 -50 -515 -61 -205 -189 -301 -409
-307 -338 -9 -483 139 -517 527 -9 103 -9 1543 0 1655 7 83 8 96 22 173 23
134 114 261 219 308 135 59 362 59 491 -2 91 -43 156 -133 190 -264 26 -100
34 -183 35 -337 l1 -117 47 -3 c26 -2 84 -2 130 0 l83 3 -1 200 c-1 175 -4
210 -25 287 -70 259 -193 401 -416 475 -25 9 -66 19 -90 23 -64 10 -337 13
-384 4z"/>
<path d="M152 1595 l0 -1555 146 0 147 0 0 750 c0 491 3 751 10 753 6 2 160 3
343 2 l332 0 0 107 0 108 -342 0 -343 0 1 577 c1 318 2 581 3 586 0 4 186 7
411 7 l410 0 0 110 0 110 -559 0 -559 0 0 -1555z"/>
</g>
</svg>
