<svg width="178" height="130" viewBox="0 0 178 130" fill="none" xmlns="http://www.w3.org/2000/svg">
<path d="M35 32H144V80.5C144 107.286 122.286 129 95.5 129H35C16.2223 129 1 113.778 1 95V66C1 47.2223 16.2223 32 35 32Z" fill="#EBC43C" stroke="black" stroke-width="2"/>
<path d="M115.762 2.00002C140.861 4.76685 143.65 16.5 143.65 31.3264C119.65 31.3263 109.627 17.4932 115.762 2.00002Z" fill="#EBC43C" stroke="black" stroke-width="2"/>
<path d="M176.051 8C153.052 8 143.195 15.0811 144.051 31C171.59 30.9999 176.051 25 176.051 8Z" fill="#EBC43C" stroke="black" stroke-width="2"/>
<path d="M1 92C29.8989 100.619 46.1013 109.351 75 92" stroke="black" stroke-width="2"/>
<circle cx="72.5" cy="76.5" r="1.5" fill="black"/>
</svg>
